<?xml version="1.0" encoding="UTF-8" standalone="no"?>
<!-- Created with Inkscape (http://www.inkscape.org/) -->

<svg
   width="150mm"
   height="100mm"
   viewBox="0 0 150 100"
   version="1.1"
   id="svg1"
   inkscape:version="1.4.2 (ebf0e940, 2025-05-08)"
   sodipodi:docname="ocean_pattern.svg"
   xmlns:inkscape="http://www.inkscape.org/namespaces/inkscape"
   xmlns:sodipodi="http://sodipodi.sourceforge.net/DTD/sodipodi-0.dtd"
   xmlns="http://www.w3.org/2000/svg"
   xmlns:svg="http://www.w3.org/2000/svg">
  <sodipodi:namedview
     id="namedview1"
     pagecolor="#505050"
     bordercolor="#ffffff"
     borderopacity="1"
     inkscape:showpageshadow="0"
     inkscape:pageopacity="0"
     inkscape:pagecheckerboard="1"
     inkscape:deskcolor="#505050"
     inkscape:document-units="mm"
     inkscape:zoom="0.76041375"
     inkscape:cx="264.32978"
     inkscape:cy="241.31599"
     inkscape:window-width="1408"
     inkscape:window-height="786"
     inkscape:window-x="0"
     inkscape:window-y="38"
     inkscape:window-maximized="0"
     inkscape:current-layer="layer1" />
  <defs
     id="defs1" />
  <path
     d="m 85.219603,50.191446 a 15.550106,8.9413118 0 0 1 -0.41342,-0.299207 15.550106,14.279379 0 0 1 -8.44909,2.297018 15.550106,14.279379 0 0 1 -10.54923,-3.781165 15.550106,8.9413118 0 0 1 -3.39411,2.420524 15.550106,8.9413118 0 0 0 10.89908,2.559017 15.550106,8.9413118 0 0 0 11.90677,-3.196187 z"
     style="fill:#9fc4f9;fill-rule:evenodd;stroke:#000000;stroke-width:0;fill-opacity:1"
     id="path8" />
  <path
     d="m 88.263853,47.084659 a 15.550106,14.279379 0 0 1 -0.25889,0.276985 15.550106,8.9413118 0 0 1 -2.78536,2.829802 15.550106,8.9413118 0 0 0 11.97704,3.232877 15.550106,8.9413118 0 0 0 10.918717,-2.579687 15.550106,8.9413118 0 0 1 -0.51728,-0.30024 15.550106,14.279379 0 0 1 -7.35718,1.703255 15.550106,14.279379 0 0 1 -11.977047,-5.162992 z"
     style="fill:#9fc4f9;fill-rule:evenodd;stroke:#000000;stroke-width:0;fill-opacity:1"
     id="path10" />
  <path
     d="m 85.219603,50.191446 a 15.550106,8.9413118 0 0 0 2.78536,-2.829802 15.550106,14.279379 0 0 1 -3.19878,2.530595 15.550106,8.9413118 0 0 0 0.41342,0.299207 z"
     style="fill:#9fc4f9;fill-rule:evenodd;stroke:#000000;stroke-width:0;fill-opacity:1"
     id="path9" />
  <path
     d="m 130.37808,49.831778 c -2.67192,1.330236 -5.43886,2.28326 -8.42946,2.284615 -3.95849,0.0019 -7.76877,-1.382497 -10.65413,-3.871082 -0.78129,0.968639 -1.858,1.848981 -3.17913,2.599325 2.89912,1.603606 6.76622,2.498793 10.789,2.497522 4.59546,-0.0014 11.61414,-3.403798 11.47372,-3.51038 z"
     style="fill:#9fc4f9;fill-rule:evenodd;stroke:#000000;stroke-width:0;fill-opacity:1"
     id="path12"
     sodipodi:nodetypes="cccccc" />
  <path
     d="m 107.59808,50.544396 a 15.550106,8.9413118 0 0 0 0.51728,0.30024 15.550106,8.9413118 0 0 0 3.17913,-2.599325 15.550106,14.279379 0 0 1 -0.13436,-0.117305 15.550106,14.279379 0 0 1 -3.56205,2.41639 z"
     style="fill:#9fc4f9;fill-rule:evenodd;stroke:#000000;stroke-width:0;fill-opacity:1"
     id="path11" />
  <g
     inkscape:label="Layer 1"
     inkscape:groupmode="layer"
     id="layer1">
    <path
       d="m 32.973904,30.24064 a 21.066835,19.345291 0 0 1 -3.39721,2.737301 15.550106,8.9413118 0 0 0 11.90728,3.184818 15.550106,8.9413118 0 0 0 10.919229,-2.579687 15.550106,8.9413118 0 0 1 -0.5178,-0.30024 15.550106,14.279379 0 0 1 -7.357169,1.703255 15.550106,14.279379 0 0 1 -11.55433,-4.745447 z"
       style="fill:#9fc4f9;fill-rule:evenodd;stroke:#000000;stroke-width:0;fill-opacity:1"
       id="path15" />
    <path
       d="m 75.098973,32.884406 a 15.550106,8.9413118 0 0 1 -0.43356,-0.314709 15.550106,14.279379 0 0 1 -8.42894,2.285132 15.550106,14.279379 0 0 1 -10.65413,-3.871082 15.550106,8.9413118 0 0 1 -3.17914,2.599325 15.550106,8.9413118 0 0 0 10.78849,2.497522 15.550106,8.9413118 0 0 0 11.90728,-3.196188 z"
       style="fill:#9fc4f9;fill-rule:evenodd;stroke:#000000;stroke-width:0;fill-opacity:1"
       id="path4" />
    <path
       d="m 52.403203,33.583072 a 15.550106,8.9413118 0 0 0 3.17914,-2.599325 15.550106,14.279379 0 0 1 -0.13488,-0.117822 15.550106,14.279379 0 0 1 -3.56206,2.416907 15.550106,8.9413118 0 0 0 0.5178,0.30024 z"
       style="fill:#9fc4f9;fill-rule:evenodd;stroke:#000000;stroke-width:0;fill-opacity:1"
       id="path3" />
    <path
       d="m 61.829813,50.480834 a 15.550106,8.9413118 0 0 0 0.58394,0.347782 15.550106,8.9413118 0 0 0 3.39411,-2.420524 15.550106,14.279379 0 0 1 -0.22841,-0.197404 15.550106,14.279379 0 0 1 -3.74964,2.270146 z"
       style="fill:#9fc4f9;fill-rule:evenodd;stroke:#000000;stroke-width:0;fill-opacity:1"
       id="path7" />
    <path
       d="m 78.143233,29.750231 c -0.0714,0.07822 -0.14379,0.155744 -0.21704,0.232544 -0.6185,1.06037 -1.5775,2.044605 -2.82722,2.901631 2.95615,2.049215 7.34674,3.234333 11.97706,3.232878 3.75644,-0.0012 9.82061,-2.433367 9.63145,-2.552299 -2.06177,0.886813 -4.31046,1.347064 -6.5872,1.348238 -4.63033,0.0023 -9.02091,-1.890356 -11.97705,-5.162992 z"
       style="fill:#9fc4f9;fill-rule:evenodd;stroke:#000000;stroke-width:0;fill-opacity:1"
       id="path6"
       sodipodi:nodetypes="ccccccc" />
    <path
       d="m 75.098973,32.884406 a 15.550106,8.9413118 0 0 0 2.82722,-2.901631 15.550106,14.279379 0 0 1 -3.26078,2.586922 15.550106,8.9413118 0 0 0 0.43356,0.314709 z"
       style="fill:#9fc4f9;fill-rule:evenodd;stroke:#000000;stroke-width:0;fill-opacity:1"
       id="path5" />
    <path
       d="m 32.729484,64.286327 a 21.066835,19.345291 0 0 1 -3.39721,2.7373 15.550106,8.9413118 0 0 0 11.90728,3.18482 15.550106,8.9413118 0 0 0 10.919229,-2.57969 15.550106,8.9413118 0 0 1 -0.5178,-0.30024 15.550106,14.279379 0 0 1 -7.357169,1.70326 15.550106,14.279379 0 0 1 -11.55433,-4.74545 z"
       style="fill:#9fc4f9;fill-rule:evenodd;stroke:#000000;stroke-width:0;fill-opacity:1"
       id="path15-6" />
    <path
       d="m 74.854553,66.930087 a 15.550106,8.9413118 0 0 1 -0.43356,-0.3147 15.550106,14.279379 0 0 1 -8.42894,2.28513 15.550106,14.279379 0 0 1 -10.65413,-3.87108 15.550106,8.9413118 0 0 1 -3.17914,2.59932 15.550106,8.9413118 0 0 0 10.78849,2.49752 15.550106,8.9413118 0 0 0 11.90728,-3.19619 z"
       style="fill:#9fc4f9;fill-rule:evenodd;stroke:#000000;stroke-width:0;fill-opacity:1"
       id="path4-9" />
    <path
       d="m 52.158783,67.628757 a 15.550106,8.9413118 0 0 0 3.17914,-2.59932 15.550106,14.279379 0 0 1 -0.13488,-0.11783 15.550106,14.279379 0 0 1 -3.56206,2.41691 15.550106,8.9413118 0 0 0 0.5178,0.30024 z"
       style="fill:#9fc4f9;fill-rule:evenodd;stroke:#000000;stroke-width:0;fill-opacity:1"
       id="path3-4" />
    <path
       d="m 77.898813,63.795917 c -0.0714,0.0782 -0.14379,0.15574 -0.21704,0.23254 -0.6185,1.06037 -1.5775,2.0446 -2.82722,2.90163 2.95615,2.04922 7.34674,3.23433 11.97706,3.23288 3.75644,-10e-4 9.82061,-2.43337 9.63145,-2.5523 -2.06177,0.88681 -4.31046,1.34707 -6.5872,1.34824 -4.63033,0.002 -9.02091,-1.89035 -11.97705,-5.16299 z"
       style="fill:#9fc4f9;fill-rule:evenodd;stroke:#000000;stroke-width:0;fill-opacity:1"
       id="path6-1"
       sodipodi:nodetypes="ccccccc" />
    <path
       d="m 74.854553,66.930087 a 15.550106,8.9413118 0 0 0 2.82722,-2.90163 15.550106,14.279379 0 0 1 -3.26078,2.58693 15.550106,8.9413118 0 0 0 0.43356,0.3147 z"
       style="fill:#9fc4f9;fill-rule:evenodd;stroke:#000000;stroke-width:0;fill-opacity:1"
       id="path5-3" />
  </g>
</svg>
